<svg width="24" height="24" viewBox="0 0 24 24" xmlns="http://www.w3.org/2000/svg"><defs><radialGradient id="g" cx="28%" cy="18%" r="120%"><stop offset="0%" stop-color="#1E7D8C"></stop><stop offset="58%" stop-color="#134E5A"></stop><stop offset="100%" stop-color="#0E3540"></stop></radialGradient></defs><rect width="24" height="24" rx="5.5" fill="url(#g)"></rect><rect x="3.97" y="3.97" width="4.73" height="3.31" rx="0.93" fill="#2F94A6"></rect><rect x="9.63" y="3.97" width="4.73" height="3.31" rx="0.93" fill="#2F94A6"></rect><rect x="15.30" y="3.97" width="4.73" height="3.31" rx="0.93" fill="#1A6E7C"></rect><rect x="3.97" y="8.22" width="4.73" height="3.31" rx="0.93" fill="#2F94A6"></rect><rect x="9.63" y="8.22" width="4.73" height="3.31" rx="0.93" fill="#F2EADA"></rect><rect x="15.30" y="8.22" width="4.73" height="3.31" rx="0.93" fill="#F2EADA"></rect><rect x="3.97" y="12.47" width="4.73" height="3.31" rx="0.93" fill="#1A6E7C"></rect><rect x="9.63" y="12.47" width="4.73" height="3.31" rx="0.93" fill="#F2EADA"></rect><rect x="15.30" y="12.47" width="4.73" height="3.31" rx="0.93" fill="#E0A43B"></rect><rect x="3.97" y="16.72" width="4.73" height="3.31" rx="0.93" fill="#1A6E7C"></rect><rect x="9.63" y="16.72" width="4.73" height="3.31" rx="0.93" fill="#1A6E7C"></rect><rect x="15.30" y="16.72" width="4.73" height="3.31" rx="0.93" fill="#1A6E7C"></rect></svg>